HIERARCHY
ROOT hip
{
  OFFSET 0 0 0
  CHANNELS 6 Xposition Yposition Zposition Zrotation Yrotation Xrotation
  JOINT abdomen
  {
    OFFSET 0 20.6881 -0.73152
    CHANNELS 3 Zrotation Xrotation Yrotation
    JOINT chest
    {
      OFFSET 0 11.7043 -0.48768
      CHANNELS 3 Zrotation Xrotation Yrotation
      JOINT neck
      {
        OFFSET 0 22.1894 -2.19456
        CHANNELS 3 Zrotation Xrotation Yrotation
        JOINT head
        {
          OFFSET -0.24384 7.07133 1.2192
          CHANNELS 3 Zrotation Xrotation Yrotation
          JOINT leftEye
          {
            OFFSET 4.14528 8.04674 8.04672
            CHANNELS 3 Zrotation Xrotation Yrotation
            End Site
            {
              OFFSET 1 0 0
            }
          }
          JOINT rightEye
          {
            OFFSET -3.6576 8.04674 8.04672
            CHANNELS 3 Zrotation Xrotation Yrotation
            End Site
            {
              OFFSET 1 0 0
            }
          }
        }
      }
      JOINT rCollar
      {
        OFFSET -2.68224 19.2634 -4.8768
        CHANNELS 3 Zrotation Xrotation Yrotation
        JOINT rShldr
        {
          OFFSET -8.77824 -1.95073 1.46304
          CHANNELS 3 Zrotation Xrotation Yrotation
          JOINT rForeArm
          {
            OFFSET -28.1742 -1.7115 0.48768
            CHANNELS 3 Zrotation Xrotation Yrotation
            JOINT rHand
            {
              OFFSET -22.5879 0.773209 7.07136
              CHANNELS 3 Zrotation Xrotation Yrotation
              JOINT rThumb1
              {
                OFFSET -1.2192 -0.487915 3.41376
                CHANNELS 3 Zrotation Xrotation Yrotation
                JOINT rThumb2
                {
                  OFFSET -3.37035 -0.52449 3.41376
                  CHANNELS 3 Zrotation Xrotation Yrotation
                  End Site
                  {
                    OFFSET -1.78271 -1.18214 1.43049
                  }
                }
              }
              JOINT rIndex1
              {
                OFFSET -7.75947 0.938293 5.60832
                CHANNELS 3 Zrotation Xrotation Yrotation
                JOINT rIndex2
                {
                  OFFSET -2.54057 -0.884171 1.56538
                  CHANNELS 3 Zrotation Xrotation Yrotation
                  End Site
                  {
                    OFFSET -1.62519 -0.234802 1.16502
                  }
                }
              }
              JOINT rMid1
              {
                OFFSET -8.24714 1.18213 3.41376
                CHANNELS 3 Zrotation Xrotation Yrotation
                JOINT rMid2
                {
                  OFFSET -3.10165 -0.590103 1.0647
                  CHANNELS 3 Zrotation Xrotation Yrotation
                  End Site
                  {
                    OFFSET -2.48547 -0.328903 0.83742
                  }
                }
              }
              JOINT rRing1
              {
                OFFSET -8.82822 0.546677 1.51678
                CHANNELS 3 Zrotation Xrotation Yrotation
                JOINT rRing2
                {
                  OFFSET -2.60934 -0.819778 -0.0198488
                  CHANNELS 3 Zrotation Xrotation Yrotation
                  End Site
                  {
                    OFFSET -2.33842 -0.294052 0.168128
                  }
                }
              }
              JOINT rPinky1
              {
                OFFSET -8.27202 -0.0477905 -0.4584
                CHANNELS 3 Zrotation Xrotation Yrotation
                JOINT rPinky2
                {
                  OFFSET -1.82734 -0.647385 -0.700984
                  CHANNELS 3 Zrotation Xrotation Yrotation
                  End Site
                  {
                    OFFSET -1.69225 -0.51767 -0.607171
                  }
                }
              }
            }
          }
        }
      }
      JOINT lCollar
      {
        OFFSET 2.68224 19.2634 -4.8768
        CHANNELS 3 Zrotation Xrotation Yrotation
        JOINT lShldr
        {
          OFFSET 8.77824 -1.95073 1.46304
          CHANNELS 3 Zrotation Xrotation Yrotation
          JOINT lForeArm
          {
            OFFSET 28.1742 -1.7115 0.48768
            CHANNELS 3 Zrotation Xrotation Yrotation
            JOINT lHand
            {
              OFFSET 22.5879 0.773209 7.07136
              CHANNELS 3 Zrotation Xrotation Yrotation
              JOINT lThumb1
              {
                OFFSET 1.2192 -0.487915 3.41376
                CHANNELS 3 Zrotation Xrotation Yrotation
                JOINT lThumb2
                {
                  OFFSET 3.37035 -0.52449 3.41376
                  CHANNELS 3 Zrotation Xrotation Yrotation
                  End Site
                  {
                    OFFSET 1.78271 -1.18214 1.43049
                  }
                }
              }
              JOINT lIndex1
              {
                OFFSET 7.75947 0.938293 5.60832
                CHANNELS 3 Zrotation Xrotation Yrotation
                JOINT lIndex2
                {
                  OFFSET 2.54057 -0.884171 1.56538
                  CHANNELS 3 Zrotation Xrotation Yrotation
                  End Site
                  {
                    OFFSET 1.62519 -0.234802 1.16502
                  }
                }
              }
              JOINT lMid1
              {
                OFFSET 8.24714 1.18213 3.41376
                CHANNELS 3 Zrotation Xrotation Yrotation
                JOINT lMid2
                {
                  OFFSET 3.10165 -0.590103 1.0647
                  CHANNELS 3 Zrotation Xrotation Yrotation
                  End Site
                  {
                    OFFSET 2.48547 -0.328903 0.83742
                  }
                }
              }
              JOINT lRing1
              {
                OFFSET 8.82822 0.546677 1.51678
                CHANNELS 3 Zrotation Xrotation Yrotation
                JOINT lRing2
                {
                  OFFSET 2.60934 -0.819778 -0.0198488
                  CHANNELS 3 Zrotation Xrotation Yrotation
                  End Site
                  {
                    OFFSET 2.33842 -0.294052 0.168128
                  }
                }
              }
              JOINT lPinky1
              {
                OFFSET 8.27202 -0.0477905 -0.4584
                CHANNELS 3 Zrotation Xrotation Yrotation
                JOINT lPinky2
                {
                  OFFSET 1.82734 -0.647385 -0.700984
                  CHANNELS 3 Zrotation Xrotation Yrotation
                  End Site
                  {
                    OFFSET 1.69225 -0.51767 -0.607171
                  }
                }
              }
            }
          }
        }
      }
    }
  }
  JOINT rButtock
  {
    OFFSET -8.77824 4.35084 1.2192
    CHANNELS 3 Zrotation Xrotation Yrotation
    JOINT rThigh
    {
      OFFSET 0 -1.70687 -2.19456
      CHANNELS 3 Zrotation Xrotation Yrotation
      JOINT rShin
      {
        OFFSET 0 -36.8199 0.73152
        CHANNELS 3 Zrotation Xrotation Yrotation
        JOINT rFoot
        {
          OFFSET 0.73152 -45.1104 -5.12064
          CHANNELS 3 Zrotation Xrotation Yrotation
          End Site
          {
            OFFSET -1.1221 -3.69964 12.103
          }
        }
      }
    }
  }
  JOINT lButtock
  {
    OFFSET 8.77824 4.35084 1.2192
    CHANNELS 3 Zrotation Xrotation Yrotation
    JOINT lThigh
    {
      OFFSET 0 -1.70687 -2.19456
      CHANNELS 3 Zrotation Xrotation Yrotation
      JOINT lShin
      {
        OFFSET 0 -36.8199 0.73152
        CHANNELS 3 Zrotation Xrotation Yrotation
        JOINT lFoot
        {
          OFFSET -0.73152 -45.1104 -5.12064
          CHANNELS 3 Zrotation Xrotation Yrotation
          End Site
          {
            OFFSET 1.1221 -3.69964 12.103
          }
        }
      }
    }
  }
}
MOTION
Frames:	4
Frame Time:	0.00833333
61.4887 70.6283 46.419 116.243 -83.678 -123.466 -5.14745 6.40965 -4.09552 0.557481 -4.54935 -1.21186 2.44178 7.72819 2.79702 -2.40623 -9.73469 4.59077 -0.0 0.0 0.0 -0.0 0.0 0.0 -2.18802e-13 3.11406e-12 4.13969e-14 -18.8671 -68.3075 26.5413 -20.5156 -13.6743 39.9467 -2.28402e-06 0.0431757 0.00606795 3.98278e-09 -1.1342e-09 -2.2713e-10 6.88796e-09 -1.96685e-09 -4.02824e-10 3.98278e-09 -1.1342e-09 -2.27142e-10 7.73091 5.47488 0.417314 3.98277e-09 -1.1342e-09 -2.27117e-10 2.90554 0.965183 0.102902 3.98278e-09 -1.1342e-09 -2.27123e-10 10.2786 0.731801 0.0259123 3.98278e-09 -1.1342e-09 -2.27114e-10 2.22167 -0.733487 -0.20892 -2.18836e-13 3.11406e-12 4.11981e-14 35.943 -55.2127 -10.8079 23.1494 -17.587 -47.0213 0.028426 -4.80714 0.677206 -2.5895e-09 9.07767e-10 -9.13738e-10 -4.47125e-09 1.57418e-09 -1.59428e-09 -2.58951e-09 9.07771e-10 -9.13716e-10 -7.73091 5.47488 -0.417314 -2.5895e-09 9.07766e-10 -9.13738e-10 -2.90554 0.965183 -0.102902 -2.58951e-09 9.07766e-10 -9.13737e-10 -10.2786 0.731801 -0.0259123 -2.5895e-09 9.07765e-10 -9.13745e-10 -2.22167 -0.733487 0.20892 -2.03217e-16 0.0 -3.88251e-19 -27.7619 -12.3123 27.9872 -0.251727 41.849 1.45749 1.90889 -8.78095 -2.82495 2.03217e-16 0.0 3.88251e-19 21.941 -5.70415 -18.945 0.204399 38.7464 -1.33854 -4.24035 -5.44717 -11.1989
61.592 72.0184 46.4473 116.132 -83.744 -122.804 -4.89023 5.79255 -3.97237 0.397427 -4.45158 -1.17159 2.40005 7.49615 2.81393 -2.3882 -9.44573 4.62587 -0.0 0.0 0.0 -0.0 0.0 0.0 -1.596e-13 2.28602e-12 5.33356e-14 -21.216 -66.4397 22.0205 -20.3677 -13.4821 39.5779 0.000314599 -0.198807 -0.0279374 3.50027e-09 -1.11902e-09 -1.71713e-10 6.05302e-09 -1.94051e-09 -3.06151e-10 3.50028e-09 -1.11902e-09 -1.71721e-10 7.73091 5.47488 0.417314 3.50027e-09 -1.11902e-09 -1.71699e-10 2.90554 0.965183 0.102902 3.50028e-09 -1.11901e-09 -1.71707e-10 10.2786 0.731801 0.0259123 3.50027e-09 -1.11902e-09 -1.71699e-10 2.22167 -0.733487 -0.20892 -1.59619e-13 2.28602e-12 5.31268e-14 35.3978 -53.3373 -9.32439 23.0829 -17.4754 -46.8252 0.0293166 -4.86791 0.685822 -2.40021e-09 5.80219e-10 -7.5911e-10 -4.14486e-09 1.00703e-09 -1.32461e-09 -2.40022e-09 5.80223e-10 -7.59091e-10 -7.73091 5.47488 -0.417314 -2.40021e-09 5.80218e-10 -7.59112e-10 -2.90554 0.965183 -0.102902 -2.40022e-09 5.80219e-10 -7.59108e-10 -10.2786 0.731801 -0.0259123 -2.40021e-09 5.80218e-10 -7.59116e-10 -2.22167 -0.733487 0.20892 -2.03217e-16 0.0 -3.88251e-19 -27.6109 -11.8977 28.106 -0.214226 39.7279 1.39318 1.96505 -5.86371 -2.81485 2.03217e-16 0.0 3.88251e-19 21.6164 -5.62657 -19.2425 0.173188 37.0445 -1.32003 -3.4188 -2.68555 -9.84253
61.7384 73.4203 46.4926 116.542 -83.6919 -122.461 -4.5539 5.11672 -3.85366 0.173248 -4.35912 -1.13338 2.43996 7.24449 2.81647 -2.42059 -9.04642 4.61345 -0.0 0.0 0.0 -0.0 0.0 0.0 -6.56064e-14 8.72337e-13 6.46236e-14 -23.0673 -64.2357 17.83 -20.1976 -13.2627 39.1607 0.000114014 -0.619532 -0.0870665 1.86462e-09 -9.08323e-10 -1.8665e-10 3.22402e-09 -1.57497e-09 -3.29229e-10 1.86462e-09 -9.08321e-10 -1.86652e-10 7.73091 5.47488 0.417314 1.86462e-09 -9.08321e-10 -1.86635e-10 2.90554 0.965183 0.102902 1.86462e-09 -9.0832e-10 -1.86645e-10 10.2786 0.731801 0.0259123 1.86462e-09 -9.0832e-10 -1.86641e-10 2.22167 -0.733487 -0.20892 -6.56082e-14 8.72338e-13 6.44e-14 34.6932 -51.3263 -7.9304 23.0039 -17.3434 -46.5948 0.0292375 -4.84937 0.683212 -1.41683e-09 1.62982e-10 -4.20295e-10 -2.44684e-09 2.84018e-10 -7.33023e-10 -1.41685e-09 1.62986e-10 -4.20281e-10 -7.73091 5.47488 -0.417314 -1.41685e-09 1.62983e-10 -4.203e-10 -2.90554 0.965183 -0.102902 -1.41685e-09 1.62983e-10 -4.20293e-10 -10.2786 0.731801 -0.0259123 -1.41684e-09 1.62982e-10 -4.203e-10 -2.22167 -0.733487 0.20892 -2.03217e-16 0.0 -3.88251e-19 -27.3751 -11.5497 28.181 -0.177387 37.5552 1.33682 1.99461 -2.57426 -3.15298 2.03217e-16 0.0 3.88251e-19 21.3799 -5.67508 -19.455 0.145937 35.3788 -1.30374 -2.67986 0.280573 -8.19566
61.9136 74.851 46.4567 117.45 -83.9936 -122.599 -4.17506 4.44392 -3.69689 -0.0539295 -4.24172 -1.08455 2.48756 6.93686 2.81126 -2.48647 -8.63703 4.5841 -0.0 0.0 0.0 -0.0 0.0 0.0 2.66909e-14 -5.1534e-13 6.82864e-14 -24.2262 -61.9577 14.2389 -20.0108 -13.0251 38.7071 -0.000967337 -1.03477 -0.145439 3.60978e-11 -6.28273e-10 -2.25156e-10 6.16626e-11 -1.08915e-09 -3.92636e-10 3.61093e-11 -6.28269e-10 -2.25152e-10 7.73091 5.47488 0.417314 3.61053e-11 -6.28269e-10 -2.25142e-10 2.90554 0.965183 0.102902 3.6104e-11 -6.2827e-10 -2.25154e-10 10.2786 0.731801 0.0259123 3.60956e-11 -6.28268e-10 -2.25152e-10 2.22167 -0.733487 -0.20892 2.67e-14 -5.15339e-13 6.8048e-14 33.8742 -49.2184 -6.53311 22.9208 -17.2056 -46.3554 0.0292915 -4.85532 0.684053 -3.09901e-10 -1.63912e-10 -7.69249e-11 -5.35185e-10 -2.82787e-10 -1.33494e-10 -3.09924e-10 -1.63909e-10 -7.6916e-11 -7.73091 5.47488 -0.417314 -3.0992e-10 -1.63911e-10 -7.69333e-11 -2.90554 0.965183 -0.102902 -3.09912e-10 -1.6391e-10 -7.69231e-11 -10.2786 0.731801 -0.0259123 -3.09901e-10 -1.63912e-10 -7.69292e-11 -2.22167 -0.733487 0.20892 -2.03217e-16 0.0 -3.88251e-19 -27.0409 -11.3192 28.2403 -0.144407 35.4687 1.28596 2.05527 0.726693 -3.63728 2.03217e-16 0.0 3.88251e-19 21.1715 -5.79114 -19.5827 0.121887 33.7879 -1.28388 -2.11001 3.30594 -6.39889
